<?xml version="1.0" encoding="utf-8"?>
<!-- Generator: Adobe Illustrator 24.0.0, SVG Export Plug-In . SVG Version: 6.00 Build 0)  -->
<svg version="1.1" id="Layer_1" xmlns="http://www.w3.org/2000/svg" xmlns:xlink="http://www.w3.org/1999/xlink" x="0px" y="0px"
	 viewBox="0 0 47 40" style="enable-background:new 0 0 47 40;" xml:space="preserve">
<path d="M46.3,5.8c-0.5-0.7-1.2-1.3-1.9-1.6c0-0.8-0.3-1.7-0.7-2.4C42.8,0.7,41.5,0,40,0c-0.9,0-1.7,0.3-2.4,0.7
	c-1,0.6-1.6,1.6-1.8,2.8c-0.1,0.8-0.1,1.6,0.2,2.3l-7.8,5.3c-1.1-0.1-2.3,0.1-3.5,0.5l-0.1,0c-0.4,0.1-2.6,0.6-5.4,1.7
	c-0.7,0.3-1.5,0.5-2.3,0.8C9.9,16.6,0.2,19.8,0,28.9c-0.1,3.8,1.1,6.9,3.5,8.8c2,1.6,5.9,2.3,8.7,2.3c1.1,0,2.1-0.1,3-0.3
	c3.8-0.9,6.7-3.4,7.8-6.7c2-6,4-8.5,6.5-10.8c1.9-1.7,3.6-3.1,4-5.2c0.1-0.3,0.1-0.7,0.1-1.1l6.4-4.4c0.8,0.6,1.7,1,2.7,1
	c0.9,0,1.7-0.3,2.4-0.8c0.9-0.6,1.6-1.6,1.8-2.8C47.1,7.9,46.9,6.8,46.3,5.8z M31.1,16.5c-0.3,1.3-1.6,2.4-3.2,3.9
	c-2.8,2.4-5.1,5.4-7.2,11.8c-0.8,2.5-3.1,4.3-6,5.1c-0.6,0.2-1.5,0.2-2.4,0.2c-2.8,0-5.9-0.8-7.1-1.8c-1.8-1.4-2.7-3.8-2.6-6.8
	c0.1-7.3,8.5-10.1,15.2-12.4c0.8-0.3,1.6-0.6,2.4-0.8c2.7-1,4.8-1.5,5.2-1.6c0,0,0,0,0.1,0l0.1,0c0,0,0,0,0,0
	c0.9-0.3,1.7-0.4,2.4-0.4c0.2,0,0.4,0,0.6,0c0.8,0.1,1.4,0.4,1.8,0.8c0.1,0.1,0.1,0.1,0.2,0.2c0.3,0.4,0.5,0.8,0.6,1
	C31.1,16.1,31.1,16.4,31.1,16.5z M41.4,9.5c0,0.1,0,0.1,0,0.2C41.4,9.6,41.4,9.6,41.4,9.5z M44.5,8.6c-0.1,0.5-0.4,0.9-0.8,1.2
	c-0.3,0.2-0.7,0.3-1,0.3c-0.6,0-1.1-0.3-1.4-0.7c-0.1-0.2-0.3-0.4-0.5-0.5c-0.4-0.2-0.9-0.2-1.3,0.1l-6.8,4.6c0,0,0,0,0,0
	c-0.1-0.1-0.2-0.3-0.3-0.4c0,0,0-0.1-0.1-0.1c-0.1-0.1-0.2-0.2-0.4-0.4c-0.1-0.1-0.2-0.2-0.3-0.3c-0.1,0-0.1-0.1-0.2-0.1
	c-0.1,0-0.1-0.1-0.2-0.1l7.1-4.8c0.3-0.2,0.5-0.5,0.5-0.8s0-0.7-0.2-0.9c-0.1-0.1-0.1-0.1-0.1-0.2C38.3,5,38.2,4.5,38.3,4
	c0.1-0.5,0.3-0.9,0.7-1.2c0.3-0.2,0.7-0.3,1-0.3c0.6,0,1.2,0.3,1.5,0.8c0.3,0.5,0.4,1,0.2,1.5c-0.1,0.4,0,0.7,0.2,1.1
	s0.5,0.5,0.9,0.5c0.5,0,1,0.3,1.4,0.8C44.5,7.6,44.6,8.1,44.5,8.6z"/>
</svg>
