<?xml version="1.0" encoding="utf-8"?>
<!-- Generator: Adobe Illustrator 24.0.0, SVG Export Plug-In . SVG Version: 6.00 Build 0)  -->
<svg version="1.1" id="Layer_1" xmlns="http://www.w3.org/2000/svg" xmlns:xlink="http://www.w3.org/1999/xlink" x="0px" y="0px"
	 viewBox="0 0 18.8 23.9" style="enable-background:new 0 0 18.8 23.9;" xml:space="preserve">
<path d="M2.8,23c0.1,0.5,0.6,1,1.2,1h11.1c0.5,0,1.1-0.4,1.2-1l2.5-12.4c0.1-0.3,0-0.6-0.2-0.8c-0.2-0.2-0.4-0.3-0.7-0.3h-1.3
	c0.3-1.7,0.7-3.6,1.2-5.8c0-0.1,0-0.2-0.1-0.3c-0.1-0.1-0.2-0.2-0.3-0.2C16.5,3,16.1,3,15.3,2.9c-0.1,0-0.2,0-0.3,0.1
	c-0.1,0.1-0.1,0.2-0.2,0.3c-0.2,2.4-0.4,4.3-0.6,6.3H14c-0.1,0-0.1,0-0.2,0c0.2-2.4,0.4-4.8,0.7-8c0-0.1,0-0.2-0.1-0.3
	c-0.1-0.1-0.2-0.1-0.3-0.1C13.2,1,12.8,1,11.9,0.9c-0.2,0-0.4,0.2-0.4,0.4c-0.2,2.3-0.2,4.1-0.2,5.9c0,1.5-0.1,2.9-0.2,4.3
	c-0.1,0.1-0.3,0.1-0.4,0.2c0.1-1.2,0.1-2.4,0.1-3.6c0-1.5,0-3,0.1-4.7c0-0.1,0-0.2-0.1-0.3c-0.1-0.1-0.2-0.1-0.3-0.1
	C9.5,2.9,9,2.9,8,3C7.9,3,7.8,3,7.7,3.1S7.6,3.3,7.6,3.4C7.8,5,7.9,6.6,8,8.1c0.1,1.2,0.2,2.4,0.3,3.6c-0.1,0-0.3-0.1-0.4-0.1
	C7.7,10.1,7.6,8.6,7.5,7C7.3,4.9,7.1,2.6,6.8,0.4c0-0.2-0.2-0.4-0.4-0.4C5.5,0.2,5,0.2,4.1,0.3C4,0.3,3.9,0.4,3.9,0.5
	C3.8,0.6,3.8,0.7,3.8,0.8c0.4,2.9,0.8,5.8,1.1,8.8c-0.1,0-0.3-0.1-0.4-0.1C4.2,7.2,3.9,4.9,3.6,2.7c0-0.1-0.1-0.2-0.2-0.3
	C3.3,2.3,3.2,2.3,3.1,2.3c-0.8,0.1-1.2,0.2-2,0.4C1,2.7,0.9,2.8,0.8,2.9C0.8,3,0.8,3.1,0.8,3.2c0.5,2.1,0.9,4.2,1.3,6.3H0.9
	c-0.3,0-0.5,0.1-0.7,0.3C0,10,0,10.3,0,10.6L2.8,23z M15.6,3.7c0.5,0.1,0.8,0.1,1.3,0.2C16.4,6,16,7.8,15.7,9.5H15
	C15.2,7.7,15.4,5.9,15.6,3.7z M12,7.2c0-1.7,0.1-3.4,0.2-5.4c0.5,0,0.9,0,1.4,0.1c-0.3,3.2-0.5,5.6-0.7,8c0,0,0,0,0,0
	c-0.2,0.1-0.3,0.2-0.4,0.4c0,0.1-0.3,0.4-0.7,0.8C11.9,9.7,12,8.5,12,7.2z M8.8,8.1C8.7,6.7,8.6,5.2,8.5,3.8c0.6,0,1,0,1.5-0.1
	C9.9,5.3,9.9,6.7,9.9,8c0,1.3,0,2.5-0.1,3.8c-0.2,0-0.4,0-0.6,0c0,0-0.1,0-0.1,0C9,10.6,8.9,9.4,8.8,8.1z M4.6,1.1
	C5.2,1,5.6,1,6.1,0.9C6.3,3,6.5,5.1,6.7,7.1c0.1,1.4,0.2,2.8,0.4,4.2c-0.7-0.4-1.1-1-1.2-1.2c0,0-0.1-0.1-0.1-0.1c0,0,0-0.1,0-0.1
	C5.4,6.9,5,4,4.6,1.1z M1.6,3.4c0.4-0.1,0.8-0.1,1.2-0.2c0.3,2.1,0.6,4.2,0.9,6.3H2.9C2.5,7.5,2.1,5.4,1.6,3.4z M0.9,10.3h3.6
	c0.2,0,0.6,0.2,0.7,0.3c0.2,0.4,1.5,2.1,4,2.1c2.7,0,3.9-1.9,4-2c0.1-0.2,0.5-0.4,0.8-0.4h3.9c0,0,0.1,0,0.1,0c0,0,0,0.1,0,0.1
	l-2.5,12.4c0,0.2-0.2,0.3-0.4,0.3H4c-0.2,0-0.4-0.2-0.4-0.3L0.8,10.4L0.9,10.3z"/>
</svg>
