<svg version="1.1" id="HotDog" xmlns="http://www.w3.org/2000/svg" xmlns:xlink="http://www.w3.org/1999/xlink" x="0" y="0" viewBox="0 0 61.6 61.6" enable-background="new 0 0 61.6 61.6" xml:space="preserve">
  <g id="inner">
    <path id="broodje" fill="#FFFFFF" stroke="#B22D2D" stroke-width="2" stroke-miterlimit="10" d="M52.8 36.4L36.4 52.7c-4.7 4.7-12.3 4.7-17 0l-9.5-9.5c-4.7-4.7-4.7-12.3 0-17L26.2 9.8c4.7-4.7 12.3-4.7 17 0l9.5 9.5C57.4 24.1 57.4 31.7 52.8 36.4z"/>
    <path id="worst" fill="#FFFFFF" stroke="#B22D2D" stroke-width="2" stroke-miterlimit="10" d="M3.1 56.9l1.6 1.6c2.8 2.8 7.5 2.8 10.3 0L58.5 15c2.8-2.8 2.8-7.5 0-10.3l-1.6-1.6c-2.8-2.8-7.5-2.8-10.3 0L3.1 46.6C0.3 49.4 0.3 54.1 3.1 56.9z"/>
    <path id="curry_1" fill="#B22D2D" d="M13.9 44.1c0-1.1 0.9-2 2-2 2.2 0 4-1.8 4-4 0-1.1 0.9-2 2-2 2.2 0 4-1.8 4-4 0-1.1 0.9-2 2-2 2.2 0 4-1.8 4-4 0-1.1 0.9-2 2-2 2.2 0 4-1.8 4-4 0-1.1 0.9-2 2-2 2.2 0 4-1.8 4-4 0-1.1 0.9-2 2-2 2.2 0 4-1.8 4-4v-3h-2v3c0 1.1-0.9 2-2 2 -2.2 0-4 1.8-4 4 0 1.1-0.9 2-2 2 -2.2 0-4 1.8-4 4 0 1.1-0.9 2-2 2 -2.2 0-4 1.8-4 4 0 1.1-0.9 2-2 2 -2.2 0-4 1.8-4 4 0 1.1-0.9 2-2 2 -2.2 0-4 1.8-4 4 0 1.1-0.9 2-2 2 -2.2 0-4 1.8-4 4 0 1.1-0.9 2-2 2 -2.2 0-4 1.8-4 4v3h2v-3c0-1.1 0.9-2 2-2C12.1 48.1 13.9 46.3 13.9 44.1z"/>
    <path id="curry_2" fill="#B22D2D" d="M52.7 11.5c0 1.1-0.9 2-2 2 -2.2 0-4 1.8-4 4 0 1.1-0.9 2-2 2 -2.2 0-4 1.8-4 4 0 1.1-0.9 2-2 2 -2.2 0-4 1.8-4 4 0 1.1-0.9 2-2 2 -2.2 0-4 1.8-4 4 0 1.1-0.9 2-2 2 -2.2 0-4 1.8-4 4 0 1.1-0.9 2-2 2 -2.2 0-4 1.8-4 4 0 1.1-0.9 2-2 2 -2.2 0-4 1.8-4 4v2h2v-2c0-1.1 0.9-2 2-2 2.2 0 4-1.8 4-4 0-1.1 0.9-2 2-2 2.2 0 4-1.8 4-4 0-1.1 0.9-2 2-2 2.2 0 4-1.8 4-4 0-1.1 0.9-2 2-2 2.2 0 4-1.8 4-4 0-1.1 0.9-2 2-2 2.2 0 4-1.8 4-4 0-1.1 0.9-2 2-2 2.2 0 4-1.8 4-4 0-1.1 0.9-2 2-2 2.2 0 4-1.8 4-4v-3h-2V11.5z"/>
  </g>
</svg>
