<?xml version="1.0" encoding="utf-8"?>
<!-- Generator: Adobe Illustrator 24.0.0, SVG Export Plug-In . SVG Version: 6.00 Build 0)  -->
<svg version="1.1" id="Layer_1" xmlns="http://www.w3.org/2000/svg" xmlns:xlink="http://www.w3.org/1999/xlink" x="0px" y="0px"
	 viewBox="0 0 53.1 103.8" style="enable-background:new 0 0 53.1 103.8;" xml:space="preserve">
<style type="text/css">
	.st0{fill:none;}
	.st1{fill:#FFFFFF;stroke:#000000;stroke-miterlimit:10;}
	.st2{font-family:'HelveticaNeue-Bold';}
	.st3{font-size:5px;}
</style>
<g>
	<path class="st0" d="M46.5,18.2c0-0.4-0.3-0.6-0.6-0.6H28.3c-0.4,0-0.6,0.3-0.6,0.6v2.2h18.8C46.5,20.3,46.5,18.2,46.5,18.2z"/>
	<polygon class="st0" points="37.2,7.1 36.4,14.5 37.9,14.5 	"/>
	<path class="st0" d="M47.4,23.3H26.8l-2,2c-0.4,0.4-0.7,1-0.7,1.5v58.9c0,0.7,0.5,1.2,1.2,1.2h23.5c0.7,0,1.2-0.5,1.2-1.2V26.8
		c0-0.6-0.2-1.1-0.6-1.5L47.4,23.3z"/>
	<path d="M51.5,23.2l-2-2v-3c0-2-1.6-3.6-3.6-3.6H41L39.8,3.1C39.5,0.8,38.2,0,37.2,0l0,0c-1,0-2.4,0.8-2.6,3.1l-1.2,11.4h-5
		c-2,0-3.6,1.6-3.6,3.6v3l-2,2c-1,1-1.6,2.3-1.6,3.7v58.9c0,2.3,1.9,4.2,4.2,4.2h23.5c2.3,0,4.2-1.9,4.2-4.2V26.8
		C53.1,25.5,52.5,24.1,51.5,23.2z M37.2,7.1l0.8,7.4h-1.5L37.2,7.1z M27.7,18.2c0-0.4,0.3-0.6,0.6-0.6h17.5c0.4,0,0.6,0.3,0.6,0.6
		v2.2H27.7V18.2z M50.1,85.8c0,0.7-0.5,1.2-1.2,1.2H25.3c-0.7,0-1.2-0.5-1.2-1.2v-59c0-0.6,0.2-1.1,0.7-1.5l2-2h20.6l2,2
		c0.4,0.4,0.6,1,0.6,1.5L50.1,85.8L50.1,85.8z"/>
</g>
<rect x="-0.2" y="90" class="st1" width="53.1" height="13.3"/>
<text transform="matrix(1 0 0 1 16.3465 98.9276)" class="st2 st3">Ketchup</text>
</svg>
