<svg xmlns="http://www.w3.org/2000/svg" xmlns:xlink="http://www.w3.org/1999/xlink" version="1.1" x="0px" y="0px" viewBox="0 0 100 125" enable-background="new 0 0 100 100" xml:space="preserve"><g><path fill="none" d="M59.394,23.168c0-0.352-0.287-0.638-0.639-0.638h-17.51c-0.352,0-0.638,0.287-0.638,0.638v2.164h18.787V23.168   z"/><polygon fill="none" points="50.061,12.122 49.287,19.531 50.835,19.531  "/><path fill="none" d="M60.286,28.331H39.715l-2.048,1.984c-0.413,0.4-0.65,0.959-0.65,1.533v58.943c0,0.667,0.543,1.21,1.21,1.21   h23.548c0.667,0,1.21-0.543,1.21-1.21V31.849c0-0.575-0.237-1.133-0.649-1.533L60.286,28.331z"/><path d="M64.421,28.161l-2.028-1.965v-3.029c0-2.006-1.632-3.637-3.638-3.637H53.85L52.658,8.122C52.418,5.818,51.109,5,50.062,5   c0,0,0,0-0.001,0c-1.047,0-2.357,0.818-2.598,3.121l-1.191,11.409h-5.026c-2.006,0-3.637,1.632-3.637,3.637v3.028l-2.028,1.965   c-0.994,0.962-1.563,2.305-1.563,3.688v58.943c0,2.32,1.888,4.208,4.208,4.208h23.548c2.32,0,4.209-1.888,4.209-4.208V31.849   C65.983,30.466,65.414,29.122,64.421,28.161z M50.061,12.122l0.774,7.409h-1.547L50.061,12.122z M40.607,23.168   c0-0.352,0.286-0.638,0.638-0.638h17.51c0.352,0,0.639,0.287,0.639,0.638v2.164H40.607V23.168z M62.984,90.792   c0,0.667-0.543,1.21-1.21,1.21H38.226c-0.667,0-1.21-0.543-1.21-1.21V31.849c0-0.575,0.237-1.133,0.65-1.533l2.048-1.984h20.572   l2.048,1.984c0.412,0.4,0.649,0.959,0.649,1.533V90.792z"/></g><text x="0" y="115" fill="#000000" font-size="5px" font-weight="bold" font-family="'Helvetica Neue', Helvetica, Arial-Unicode, Arial, Sans-serif">Created by Vladimir Belochkin</text><text x="0" y="120" fill="#000000" font-size="5px" font-weight="bold" font-family="'Helvetica Neue', Helvetica, Arial-Unicode, Arial, Sans-serif">from the Noun Project</text></svg>