<svg version="1.1" id="Fries" xmlns="http://www.w3.org/2000/svg" xmlns:xlink="http://www.w3.org/1999/xlink" x="0" y="0" viewBox="0 0 19.1 24" enable-background="new 0 0 19.1 24" xml:space="preserve">
  <g id="fries_group">
    <polygon id="fries_5" fill="none" stroke="#B22D2D" stroke-width="0.75" stroke-miterlimit="10" points="4.7 16.4 3.5 16.5 1.1 3.1 3.4 2.8 "/>
    <polygon id="fries_4" fill="none" stroke="#B22D2D" stroke-width="0.75" stroke-miterlimit="10" points="7.9 14 6.7 14.2 4.3 0.7 6.6 0.4 "/>
    <polygon id="fries_3" fill="none" stroke="#B22D2D" stroke-width="0.75" stroke-miterlimit="10" points="9.9 17.1 8.7 17.1 8.2 3.4 10.5 3.5 "/>
    <polygon id="fries_2" fill="none" stroke="#B22D2D" stroke-width="0.75" stroke-miterlimit="10" points="12.5 15.3 11.3 15.2 12 1.5 14.3 1.7 "/>
    <polygon id="fries_1" fill="none" stroke="#B22D2D" stroke-width="0.75" stroke-miterlimit="10" points="14.9 17.1 13.7 16.9 16.1 3.4 18.4 3.9 "/>
  </g>
  <path id="bucket" fill="#FFFFFF" stroke="#B22D2D" stroke-width="0.75" stroke-miterlimit="10" d="M0.5 10.3l3.2 13.3h12l3-13.3c-2.6-0.6-4.3-0.3-5.4 0.2 -1.8 0.7-2.3 1.7-3.8 1.7 -1.6 0-2-1.1-4-1.8C4.4 10 2.7 9.7 0.5 10.3z"/>
</svg>
