<svg version="1.1" id="burger" xmlns="http://www.w3.org/2000/svg" xmlns:xlink="http://www.w3.org/1999/xlink" x="0" y="0" viewBox="0 0 63.8 54.7" xml:space="preserve" enable-background="new 0 0 63.8 54.7">
  <polygon id="bread_top" points="1.1 19.3 1.8 10.7 8.4 4.7 21.8 1 41.8 1 54.9 4.5 61.8 10.7 62.5 19.3 " style="fill:none;stroke-miterlimit:10;stroke-width:2;stroke:#B22D2D"/>
  <g id="bread_seeds">
    <circle class="seed_9" cx="12.1" cy="11.7" r="1" fill="#B22D2D"/>
    <circle class="seed_8" cx="16.8" cy="7.7" r="1" fill="#B22D2D"/>
    <circle class="seed_7" cx="21.8" cy="11.7" r="1" fill="#B22D2D"/>
    <circle class="seed_6" cx="26.8" cy="7.7" r="1" fill="#B22D2D"/>
    <circle class="seed_5" cx="31.8" cy="11.7" r="1" fill="#B22D2D"/>
    <circle class="seed_4" cx="36.8" cy="7.7" r="1" fill="#B22D2D"/>
    <circle class="seed_3" cx="41.8" cy="11.7" r="1" fill="#B22D2D"/>
    <circle class="seed_2" cx="46.8" cy="7.7" r="1" fill="#B22D2D"/>
    <circle class="seed_1" cx="51.8" cy="11.7" r="1" fill="#B22D2D"/>
  </g>
  <polygon class="bread_bottom" points="1.1 45.2 1.8 50.9 5.8 53.7 56.9 53.7 61.4 51.2 62.8 46 61.8 42.8 1.8 42.8 " style="fill:none;stroke-miterlimit:10;stroke-width:2;stroke:#B22D2D"/>
  <path class="meat" d="M59.3 32.6H4.7c-1.4 0-2.5-1.1-2.5-2.5l0 0c0-1.4 1.1-2.5 2.5-2.5h54.6c1.4 0 2.5 1.1 2.5 2.5l0 0C61.8 31.5 60.7 32.6 59.3 32.6z" style="fill:none;stroke-miterlimit:10;stroke-width:2;stroke:#B22D2D"/>
  <polyline class="salad" points="3.8 36.6 11.4 38.7 21.8 36.4 31.8 39 41.8 36.4 50.8 38.7 59.7 36.8 " style="fill:none;stroke-miterlimit:10;stroke-width:2;stroke:#B22D2D"/>
  <g class="cheese_group">
    <polyline class="cheese_2" points="3.8 23.6 15.8 23.6 31.7 34.6 47.8 23.6 59.9 23.6 " style="fill:none;stroke-miterlimit:10;stroke-width:2;stroke:#B22D2D"/>
    <polygon class="cheese_1" points="15.8 22.6 47.8 22.6 31.8 33.5 " fill="#FFF"/>
  </g>
</svg>
