<svg version="1.1" id="Chicken_x5F_wing" xmlns="http://www.w3.org/2000/svg" xmlns:xlink="http://www.w3.org/1999/xlink" x="0" y="0" viewBox="0 0 47.9 39.6" enable-background="new 0 0 47.9 39.6" xml:space="preserve">
  <path id="chicken_x5F_meat" fill="none" stroke="#B22D2D" stroke-width="2" stroke-miterlimit="10" d="M28 12.3c-7.2-0.6-12.9 2.7-23.2 8.9 -0.6 0.4-1.5 0.9-2.3 2C0 26.7 0.7 33.4 4.7 36.6c2.4 1.9 5.3 2 7 2 1.5 0 4.8 0.1 7.5-2 1.4-1.1 1.3-1.8 4.4-7.8 2.1-3.9 3.1-5.9 4.1-6.8 1.8-1.6 3.3-2 4.5-4.1 0.4-0.7 1.3-2.3 0.7-3.6C32.6 13.7 31.8 12.6 28 12.3z"/>
  <g id="bone_group">
    <path id="bone_4" fill="none" stroke="#B22D2D" stroke-width="2" stroke-miterlimit="10" d="M27.7 12.2c0.1 0 9.4-5.9 9.4-5.9L38 5.7l0.3-0.2C38 5.7 37.7 5.9 37.4 6 34.2 8.2 31 10.2 27.7 12.2z"/>
    <line id="bone_3" fill="none" stroke="#B22D2D" stroke-width="2" stroke-miterlimit="10" x1="33" y1="15.4" x2="41.1" y2="9.4"/>
    <path id="bone_2" fill="none" stroke="#B22D2D" stroke-width="2" stroke-miterlimit="10" d="M37.4 6.3c-0.8-2-0.2-4.1 1.1-4.9C40.6 0 44.2 2.5 44.2 4c0 0.5-0.8 0.9-0.7 1.1s0.9-0.3 1.6-0.1c1.1 0.2 2 1.9 1.8 3.4s-1.5 2.8-3.2 3.1"/>
    <path id="bone_1" fill="none" stroke="#B22D2D" stroke-width="2" stroke-miterlimit="10" d="M44.6 11.2c-0.3 0.1-1.5 0.5-2.8-0.1 -1-0.4-1.6-1.2-1.8-1.5"/>
  </g>
</svg>
