<?xml version="1.0" encoding="utf-8"?>
<!-- Generator: Adobe Illustrator 24.0.0, SVG Export Plug-In . SVG Version: 6.00 Build 0)  -->
<svg version="1.1" id="Layer_1" xmlns="http://www.w3.org/2000/svg" xmlns:xlink="http://www.w3.org/1999/xlink" x="0px" y="0px"
	 viewBox="0 0 65.9 82.3" style="enable-background:new 0 0 65.9 82.3;" xml:space="preserve">
<style type="text/css">
	.st0{fill:#BA8AF9;}
</style>
<path class="st0" d="M65.4,17.2l-5.2-4V1.9c0-0.5-0.3-1-0.8-1.2s-1-0.1-1.4,0.2l-3.8,3.2L49.3,0c-0.5-0.4-1.2-0.4-1.7,0l-4.3,3.7
	L39,0c-0.5-0.4-1.2-0.4-1.7,0L33,3.7L28.7,0c-0.5-0.4-1.2-0.4-1.7,0l-4.3,3.7L18.4,0c-0.5-0.4-1.2-0.4-1.7,0l-4.9,4.2L7.9,0.9
	C7.5,0.6,7,0.5,6.5,0.7S5.7,1.4,5.7,1.9v11.2l-5.2,4c-0.3,0.2-0.5,0.6-0.5,1V81c0,0.7,0.6,1.3,1.3,1.3h63.3c0.7,0,1.3-0.6,1.3-1.3
	V18.2C65.9,17.8,65.7,17.4,65.4,17.2z M2.7,21.3l4.1,3.6c0.5,0.4,1.2,0.4,1.7,0l5.5-4.8l5.5,4.8c0.2,0.2,0.6,0.3,0.9,0.3
	s0.6-0.1,0.9-0.3l5.5-4.8l5.5,4.8c0.5,0.4,1.2,0.4,1.7,0l5.5-4.8l5.5,4.8c0.5,0.4,1.2,0.4,1.7,0l5.5-4.8l5.5,4.8
	c0.5,0.4,1.2,0.4,1.7,0l4.2-3.6v58.4H2.7V21.3z M62.6,18.4l-4.4,3.8l-5.5-4.8l0,0v-6.6L62.6,18.4z M57.6,11.1l-4-3.1l4-3.3V11.1z
	 M17.6,2.7l4.3,3.7c0.5,0.4,1.2,0.4,1.7,0l4.3-3.7l4.3,3.7c0.5,0.4,1.2,0.4,1.7,0l4.3-3.7l4.3,3.7c0.5,0.4,1.2,0.4,1.7,0l4.3-3.7
	l3.7,3.1l-1.6,1.3l0,0l-0.1,0.1c0,0,0,0.1-0.1,0.1c0,0.1-0.1,0.1-0.1,0.2c0,0,0,0,0,0.1s-0.1,0.2-0.1,0.2l0,0c0,0.1,0,0.2,0,0.3
	v10.1l-4.5,4l-5.5-4.8c-0.5-0.4-1.2-0.4-1.7,0L33,22.2l-5.5-4.8c-0.5-0.4-1.2-0.4-1.7,0l-5.5,4.8l-4.5-3.9V8.1c0-0.2,0-0.4-0.1-0.5
	c0,0,0,0,0-0.1s-0.1-0.1-0.1-0.2c0,0,0-0.1-0.1-0.1l-0.1-0.1l0,0l-1.5-1.3L17.6,2.7z M8.4,4.8l4,3.3l-4,3.1V4.8z M13.2,10.8v6.5
	c0,0,0,0-0.1,0l-5.5,4.8l-4.3-3.8L13.2,10.8z"/>
</svg>
