<?xml version="1.0" encoding="utf-8"?>
<!-- Generator: Adobe Illustrator 24.0.0, SVG Export Plug-In . SVG Version: 6.00 Build 0)  -->
<svg version="1.1" id="Layer_1" xmlns="http://www.w3.org/2000/svg" xmlns:xlink="http://www.w3.org/1999/xlink" x="0px" y="0px"
	 viewBox="0 0 44.2 42.7" style="enable-background:new 0 0 44.2 42.7;" xml:space="preserve">
<style type="text/css">
	.st0{fill:#BA8AF9;}
</style>
<path class="st0" d="M43.6,0.2c-0.4-0.4-1-1-8.5,5.4c-4.6,4-10.5,9.5-16.6,15.6L12.7,27c-0.8-0.2-1.7-0.1-2.2,0.5l-9.8,9.8
	c-0.9,0.9-0.9,2.3,0,3.2l1.6,1.6c0.4,0.4,1,0.7,1.6,0.7s1.2-0.2,1.6-0.7l9.8-9.8c0.4-0.4,0.7-1,0.7-1.6c0-0.2,0-0.5-0.1-0.7l5.3-5.3
	l3.4,4.4l0,0l0,0c0,0,0.1,0,0.1,0.1c0,0,0,0,0.1,0s0.1,0,0.2,0s0.2,0,0.3-0.1l0,0l0,0l0,0c6.3-6.3,11.6-12.7,15.1-18
	C42.9,7.3,45.5,2.2,43.6,0.2z M14.5,31.6l-9.8,9.8c-0.5,0.5-1.3,0.5-1.7,0l-1.6-1.6c-0.5-0.5-0.5-1.3,0-1.7l9.8-9.8
	c0.2-0.2,0.5-0.4,0.9-0.4s0.6,0.1,0.9,0.4l1.6,1.6c0.2,0.2,0.4,0.5,0.4,0.9S14.7,31.4,14.5,31.6z M15.2,29.2L15.2,29.2l-1.6-1.6l0,0
	l5.2-5.2l1.6,1.6L15.2,29.2z M39.5,10.6C36.1,15.8,31,22,24.9,28l-3.4-4.4l0,0l0,0l-2-2C32.7,8.5,41.5,1.3,42.9,1
	C43.9,2.2,42.6,5.8,39.5,10.6z"/>
</svg>
