<?xml version="1.0" encoding="utf-8"?>
<!-- Generator: Adobe Illustrator 24.0.0, SVG Export Plug-In . SVG Version: 6.00 Build 0)  -->
<svg version="1.1" id="Layer_1" xmlns="http://www.w3.org/2000/svg" xmlns:xlink="http://www.w3.org/1999/xlink" x="0px" y="0px"
	 viewBox="0 0 18 18" style="enable-background:new 0 0 18 18;" xml:space="preserve">
<style type="text/css">
	.st0{fill-rule:evenodd;clip-rule:evenodd;stroke:#EF2626;stroke-miterlimit:10;}
</style>
<path class="st0" d="M9,0C4,0,0,4,0,9s4,9,9,9s9-4,9-9S14,0,9,0 M9.5,6h-1C8.2,6,8,5.8,8,5.5v-1C8,4.2,8.2,4,8.5,4h1
	C9.8,4,10,4.2,10,4.5v1C10,5.8,9.8,6,9.5,6 M9.5,14h-1C8.2,14,8,13.8,8,13.5v-5C8,8.2,8.2,8,8.5,8h1C9.8,8,10,8.2,10,8.5v5
	C10,13.8,9.8,14,9.5,14"/>
</svg>
