<?xml version="1.0" encoding="utf-8"?>
<!-- Generator: Adobe Illustrator 24.0.0, SVG Export Plug-In . SVG Version: 6.00 Build 0)  -->
<svg version="1.1" id="Layer_1" xmlns="http://www.w3.org/2000/svg" xmlns:xlink="http://www.w3.org/1999/xlink" x="0px" y="0px"
	 viewBox="0 0 60 60" style="enable-background:new 0 0 60 60;" xml:space="preserve">
<style type="text/css">
	.st0{fill:#BA8AF9;}
</style>
<title>hotdog-food-fastfood</title>
<g>
	<path class="st0" d="M60,9.5C60,4.2,55.8,0,50.5,0c-2.5,0-4.9,1-6.7,2.8L40,6.6C35.6,3,29.3,3.3,25.3,7.3l-18,18
		c-4,4-4.3,10.3-0.7,14.7l-3.8,3.8c-3.7,3.7-3.7,9.7,0,13.4s9.7,3.7,13.4,0l3.8-3.8c4.3,3.6,10.7,3.3,14.7-0.7l18-18
		c4-4,4.3-10.3,0.7-14.7l3.8-3.8C59,14.4,60,12,60,9.5z M8.7,26.7l18-18C29.9,5.5,35,5.2,38.5,8L8,38.5C5.2,35,5.5,29.9,8.7,26.7z
		 M51.3,33.3l-18,18c-3.2,3.2-8.3,3.5-11.8,0.7L52,21.5C54.8,25,54.5,30.1,51.3,33.3z M52,18.6L18.6,52l-3.8,3.8
		c-2.9,2.9-7.7,2.9-10.6,0s-2.9-7.7,0-10.6L8,41.4L41.4,8l3.8-3.8c2.9-2.9,7.7-2.9,10.6,0s2.9,7.7,0,10.6L52,18.6z"/>
	<path class="st0" d="M52,12c0,1.1-0.9,2-2,2c-2.2,0-4,1.8-4,4c0,1.1-0.9,2-2,2c-2.2,0-4,1.8-4,4c0,1.1-0.9,2-2,2c-2.2,0-4,1.8-4,4
		c0,1.1-0.9,2-2,2c-2.2,0-4,1.8-4,4c0,1.1-0.9,2-2,2c-2.2,0-4,1.8-4,4c0,1.1-0.9,2-2,2c-2.2,0-4,1.8-4,4c0,1.1-0.9,2-2,2
		c-2.2,0-4,1.8-4,4v2h2v-2c0-1.1,0.9-2,2-2c2.2,0,4-1.8,4-4c0-1.1,0.9-2,2-2c2.2,0,4-1.8,4-4c0-1.1,0.9-2,2-2c2.2,0,4-1.8,4-4
		c0-1.1,0.9-2,2-2c2.2,0,4-1.8,4-4c0-1.1,0.9-2,2-2c2.2,0,4-1.8,4-4c0-1.1,0.9-2,2-2c2.2,0,4-1.8,4-4c0-1.1,0.9-2,2-2
		c2.2,0,4-1.8,4-4V9h-2V12z"/>
	<path class="st0" d="M13,43c0-1.1,0.9-2,2-2c2.2,0,4-1.8,4-4c0-1.1,0.9-2,2-2c2.2,0,4-1.8,4-4c0-1.1,0.9-2,2-2c2.2,0,4-1.8,4-4
		c0-1.1,0.9-2,2-2c2.2,0,4-1.8,4-4c0-1.1,0.9-2,2-2c2.2,0,4-1.8,4-4c0-1.1,0.9-2,2-2c2.2,0,4-1.8,4-4V4h-2v3c0,1.1-0.9,2-2,2
		c-2.2,0-4,1.8-4,4c0,1.1-0.9,2-2,2c-2.2,0-4,1.8-4,4c0,1.1-0.9,2-2,2c-2.2,0-4,1.8-4,4c0,1.1-0.9,2-2,2c-2.2,0-4,1.8-4,4
		c0,1.1-0.9,2-2,2c-2.2,0-4,1.8-4,4c0,1.1-0.9,2-2,2c-2.2,0-4,1.8-4,4c0,1.1-0.9,2-2,2c-2.2,0-4,1.8-4,4v3h2v-3c0-1.1,0.9-2,2-2
		C11.2,47,13,45.2,13,43z"/>
</g>
</svg>
