<?xml version="1.0" encoding="utf-8"?>
<!-- Generator: Adobe Illustrator 24.0.0, SVG Export Plug-In . SVG Version: 6.00 Build 0)  -->
<svg version="1.1" id="Layer_1" xmlns="http://www.w3.org/2000/svg" xmlns:xlink="http://www.w3.org/1999/xlink" x="0px" y="0px"
	 viewBox="0 0 64 55" style="enable-background:new 0 0 64 55;" xml:space="preserve">
<style type="text/css">
	.st0{fill:#BA8AF9;}
</style>
<path class="st0" d="M61,42H3c-1.7,0-3,1.3-3,3v2c0,4.4,3.6,8,8,8h48c4.4,0,8-3.6,8-8v-2C64,43.3,62.7,42,61,42z M62,47
	c0,3.3-2.7,6-6,6H8c-3.3,0-6-2.7-6-6v-2c0-0.6,0.4-1,1-1h58c0.6,0,1,0.4,1,1V47z M32,0C6.7,0,0,9.4,0,15v3c0,1.7,1.3,3,3,3h58
	c1.7,0,3-1.3,3-3v-3C64,9.4,57.3,0,32,0z M62,18c0,0.6-0.4,1-1,1H3c-0.6,0-1-0.4-1-1v-3C2,10.5,8.3,2,32,2s30,8.5,30,13V18z
	 M60.9,36.6c0.2,0.5,0,1.1-0.4,1.3C60.3,38,56.2,40,52,40c-2.2,0-3.8-0.5-5.3-1.1C45.2,38.5,43.8,38,42,38s-3.2,0.5-4.7,0.9
	C35.8,39.5,34.2,40,32,40s-3.8-0.5-5.3-1.1C25.2,38.5,23.8,38,22,38c-2,0-3.7,0.5-5.4,1.1C15,39.5,13.5,40,12,40
	c-3.2,0-8.2-2-8.4-2.1c-0.5-0.2-0.8-0.8-0.6-1.3s0.8-0.8,1.3-0.6c0,0,4.9,1.9,7.6,1.9c1.2,0,2.6-0.4,4-0.8c1.7-0.5,3.7-1.2,6-1.2
	c2.2,0,3.8,0.5,5.3,1.1c1.5,0.5,2.8,0.9,4.7,0.9s3.2-0.5,4.7-0.9c1.6-0.5,3.2-1.1,5.3-1.1s3.8,0.5,5.3,1.1c1.5,0.5,2.8,0.9,4.7,0.9
	c3.7,0,7.5-1.9,7.6-1.9C60,35.9,60.6,36.1,60.9,36.6z M13,12c0,0.6-0.4,1-1,1s-1-0.4-1-1s0.4-1,1-1S13,11.4,13,12z M23,12
	c0,0.6-0.4,1-1,1s-1-0.4-1-1s0.4-1,1-1S23,11.4,23,12z M33,12c0,0.6-0.4,1-1,1s-1-0.4-1-1s0.4-1,1-1C32.6,11,33,11.4,33,12z M43,12
	c0,0.6-0.4,1-1,1s-1-0.4-1-1s0.4-1,1-1S43,11.4,43,12z M18,8c0,0.6-0.4,1-1,1s-1-0.4-1-1s0.4-1,1-1S18,7.4,18,8z M28,8
	c0,0.6-0.4,1-1,1s-1-0.4-1-1s0.4-1,1-1S28,7.4,28,8z M38,8c0,0.6-0.4,1-1,1s-1-0.4-1-1s0.4-1,1-1S38,7.4,38,8z M48,8
	c0,0.6-0.4,1-1,1s-1-0.4-1-1s0.4-1,1-1S48,7.4,48,8z M53,12c0,0.6-0.4,1-1,1s-1-0.4-1-1s0.4-1,1-1S53,11.4,53,12z M2,30.5
	C2,32.4,3.6,34,5.5,34h23.4l2.5,1.8c0.2,0.1,0.4,0.2,0.6,0.2s0.4-0.1,0.6-0.2l2.5-1.8h24.4c1.9,0,3.5-1.6,3.5-3.5S61.4,27,59.5,27
	H44.6l0.7-0.5c1.3-1,2.9-1.5,4.6-1.5H60c0.6,0,1-0.4,1-1s-0.4-1-1-1H49.9c-2.1,0-4.1,0.6-5.7,1.9L32,33.8l-12.1-8.9
	c-1.7-1.2-3.7-1.9-5.7-1.9H4c-0.6,0-1,0.4-1,1s0.4,1,1,1h10.1c1.6,0,3.2,0.5,4.6,1.5l0.7,0.5H5.5C3.6,27,2,28.6,2,30.5z M42,29h17.5
	c0.8,0,1.5,0.7,1.5,1.5S60.3,32,59.5,32H37.8L42,29C41.9,29,42,29,42,29z M26.2,32H5.5C4.7,32,4,31.3,4,30.5S4.7,29,5.5,29H22h0.1
	L26.2,32z"/>
</svg>
